<svg width="38" height="58" viewBox="0 0 38 58" fill="none" xmlns="http://www.w3.org/2000/svg">
<path d="M24.904 50.3634C24.886 50.3634 24.834 50.4183 24.8194 50.429C24.7351 50.4919 24.6462 50.5505 24.556 50.6058C24.3759 50.7173 24.1875 50.8168 23.993 50.9008C23.5309 51.0992 23.0195 51.2124 22.5167 51.1601C22.0256 51.1085 21.5702 50.8834 21.2296 50.5249C20.9053 50.1816 20.7335 49.7564 20.6729 49.2913C20.606 48.7722 20.6676 48.2395 20.7701 47.7298C20.8737 47.2074 21.0252 46.6967 21.1933 46.1913C21.5272 45.1881 21.9374 44.2116 22.2827 43.2131C22.4492 42.7343 22.6026 42.2492 22.7022 41.7528C22.7448 41.5347 22.7771 41.3143 22.7891 41.0922C22.7921 41.045 22.7818 41.0416 22.8277 41.0433C22.8753 41.0463 22.9229 41.0516 22.9706 41.0576C23.0858 41.0736 23.2013 41.0952 23.3135 41.1255C23.7217 41.2364 24.1049 41.4598 24.3516 41.8091C24.5803 42.1323 24.6815 42.5275 24.7252 42.9161C24.8091 43.6712 24.7048 44.447 24.5873 45.1918C24.5054 45.7042 24.3969 46.2106 24.2877 46.7173C24.1771 47.2251 24.0689 47.7368 24.0326 48.2568C24.0033 48.6803 24.0187 49.1145 24.1652 49.517C24.3047 49.8816 24.5587 50.1813 24.904 50.3634Z" fill="white"/>
<path d="M20.6074 47.4471C19.8439 47.8023 18.8631 47.9352 18.0717 47.6066C17.6941 47.4497 17.3708 47.1771 17.1524 46.8315C16.9064 46.4416 16.8201 46.0011 16.8534 45.545C16.889 45.0412 17.0449 44.5531 17.2343 44.088C17.4347 43.5963 17.6798 43.1235 17.9368 42.6587C18.4492 41.7338 19.0285 40.8458 19.5166 39.9076C19.801 39.3609 20.0766 38.7806 20.1849 38.1689C20.5624 38.2528 20.931 38.4623 21.2083 38.7293C21.4893 39 21.6615 39.3536 21.7304 39.7361C21.8636 40.4776 21.6714 41.2593 21.458 41.9665C21.3192 42.4226 21.1567 42.8731 20.9746 43.3139C20.7775 43.7877 20.5614 44.2542 20.3819 44.7356C20.2072 45.2094 20.0563 45.7088 20.0623 46.2179C20.068 46.6926 20.2494 47.1315 20.6074 47.4471Z" fill="white"/>
<path d="M16.981 43.5579C16.6224 43.6408 16.2408 43.6581 15.8749 43.6298C15.3685 43.5909 14.8625 43.4427 14.4599 43.1244C14.0897 42.8331 13.8377 42.4036 13.7587 41.9388C13.6725 41.4334 13.8287 40.917 14.0394 40.4615C14.4689 39.5313 15.1521 38.7259 15.8033 37.9451C16.4776 37.1384 17.1947 36.3413 17.7161 35.4238C17.846 35.1944 17.9552 34.957 18.0424 34.7083C18.4213 34.8747 18.7692 35.172 18.99 35.522C19.2463 35.9262 19.3179 36.4043 19.2616 36.8747C19.1664 37.6495 18.8102 38.3833 18.4393 39.0588C18.0274 39.8086 17.502 40.4882 17.0935 41.2396C16.707 41.9511 16.423 42.8514 16.981 43.5579Z" fill="white"/>
<path d="M14.162 38.951C13.3126 38.951 12.3657 38.7206 11.8177 38.0217C11.536 37.6635 11.3932 37.187 11.4418 36.7332C11.4944 36.2534 11.7405 35.812 12.0228 35.4287C12.6417 34.5911 13.4634 33.9159 14.2405 33.232C14.6271 32.8924 15.0153 32.5511 15.3792 32.1869C15.7348 31.8306 16.08 31.4551 16.3401 31.0222C16.3837 30.9493 16.424 30.8751 16.4616 30.7988C16.8198 31.0346 17.1115 31.3975 17.2667 31.7963C17.4418 32.2478 17.4095 32.7442 17.2623 33.1977C17.1178 33.6445 16.8818 34.0583 16.6204 34.4469C16.3431 34.8584 16.0331 35.2496 15.7012 35.6189C15.2557 36.1139 14.7686 36.5831 14.4 37.1421C14.0444 37.6791 13.837 38.3477 14.162 38.951Z" fill="white"/>
<path d="M12.2298 33.8453C11.4015 33.7271 10.4609 33.262 10.1276 32.451C9.93519 31.9828 9.95748 31.4595 10.1905 31.011C10.4123 30.5835 10.7642 30.2352 11.1301 29.9292C11.8493 29.328 12.6673 28.8538 13.4564 28.3518C13.8483 28.1014 14.2372 27.845 14.6047 27.56C14.952 27.291 15.2873 26.9913 15.5403 26.6311C15.5543 26.6311 15.5929 26.6817 15.6012 26.691C15.6325 26.7237 15.6628 26.7573 15.6924 26.7912C15.762 26.8725 15.825 26.9594 15.8816 27.0499C15.9981 27.2351 16.088 27.4362 16.1379 27.6493C16.2348 28.0714 16.1609 28.5003 15.9838 28.8915C15.6462 29.6369 15.0179 30.2459 14.4126 30.7746C13.8929 31.2294 13.3086 31.6086 12.8205 32.0997C12.3607 32.5635 12.0101 33.1798 12.2298 33.8453Z" fill="white"/>
<path d="M11.2352 28.4495C10.4394 28.1925 9.57779 27.5456 9.48556 26.6563C9.43262 26.1602 9.60874 25.7034 9.94801 25.3452C10.2723 25.0022 10.6828 24.7495 11.0967 24.5305C11.8145 24.1502 12.5776 23.8646 13.3221 23.5429C14.0322 23.237 14.8037 22.9087 15.3537 22.3467C15.5844 22.6397 15.7269 23.0272 15.7509 23.3984C15.7799 23.8676 15.5851 24.3031 15.3018 24.667C15.08 24.9536 14.806 25.1983 14.5203 25.4201C14.1268 25.7261 13.7039 25.9918 13.2665 26.2291C12.4208 26.6889 11.07 27.2689 11.2352 28.4495Z" fill="white"/>
<path d="M11.2559 22.9693C10.5381 22.5831 9.83321 21.8046 9.95906 20.9336C10.1046 19.9045 11.2189 19.517 12.0882 19.2763C12.7834 19.0838 13.4946 18.9576 14.1928 18.7858C14.8011 18.6363 15.4407 18.4682 15.9587 18.1023C16.1542 18.4679 16.2211 18.9357 16.1159 19.3362C16.0123 19.7324 15.745 20.0547 15.431 20.308C14.7212 20.8804 13.8275 21.1614 12.9765 21.4451C12.2361 21.6911 11.2862 22.051 11.2559 22.9693Z" fill="white"/>
<path d="M12.3549 17.6184C11.6924 17.0817 11.1673 16.0905 11.6581 15.2788C11.8975 14.8836 12.331 14.6858 12.7644 14.58C13.2679 14.4568 13.7892 14.4295 14.3056 14.4132C14.8344 14.3945 15.3637 14.4028 15.8918 14.3772C16.3969 14.3529 16.9336 14.3086 17.4007 14.0999C17.5179 14.4831 17.4929 14.9479 17.2991 15.3008C17.101 15.6644 16.7524 15.9017 16.3819 16.0659C15.996 16.2364 15.5832 16.3399 15.1696 16.4178C14.6572 16.5137 14.1349 16.5363 13.6235 16.6395C13.0668 16.7514 12.4844 17.0051 12.3549 17.6184Z" fill="white"/>
<path d="M14.5798 12.6739C14.0547 12.0121 13.7677 10.8581 14.5851 10.2944C14.976 10.0257 15.498 10.0257 15.9532 10.0647C16.4776 10.1106 16.9953 10.2275 17.51 10.3417C17.8759 10.4232 18.2438 10.5065 18.6154 10.5614C18.972 10.615 19.3372 10.6443 19.6951 10.5804C19.7188 10.9896 19.5886 11.4277 19.2896 11.7164C18.9627 12.0327 18.4836 12.1289 18.0461 12.1662C17.545 12.2078 17.0456 12.1682 16.5475 12.1109C16.0647 12.0553 15.5157 11.9808 15.0569 12.1882C14.8418 12.2854 14.6787 12.4599 14.5798 12.6739Z" fill="white"/>
<path d="M17.9346 8.49082C17.7708 8.11992 17.6902 7.67843 17.7631 7.2769C17.838 6.8544 18.1344 6.47085 18.5635 6.36531C19.0193 6.25344 19.5117 6.42291 19.9296 6.59471C20.4113 6.79281 20.8681 7.04717 21.3323 7.2819C21.7911 7.51363 22.2991 7.78198 22.8229 7.80462C22.7449 8.21082 22.4806 8.618 22.091 8.78015C21.7315 8.93064 21.3219 8.89501 20.9494 8.8201C20.4746 8.72554 20.0301 8.54642 19.5797 8.37596C19.1455 8.21182 18.5971 8.01937 18.163 8.28073C18.0744 8.33567 17.9982 8.40925 17.9346 8.49082Z" fill="white"/>
<path d="M21.9397 56.4654C21.9314 56.1178 21.8731 55.7669 21.7992 55.427C21.6916 54.9345 21.5255 54.4505 21.2765 54.011C20.8004 53.1706 19.9573 52.563 18.9888 52.4495C18.4807 52.3902 17.9643 52.4445 17.4619 52.531C16.9505 52.6186 16.4474 52.7441 15.946 52.872C14.9282 53.1303 13.9114 53.4057 12.8703 53.5555C11.4759 53.7569 10.012 53.7246 8.71582 53.1157C8.77175 53.4693 8.90694 53.8205 9.05809 54.1425C9.24854 54.5473 9.48958 54.9266 9.77291 55.2725C10.3159 55.9367 11.0165 56.4654 11.7962 56.821C13.5229 57.6108 15.5132 57.5225 17.2805 56.9189C18.0439 56.6589 18.793 56.3346 19.5864 56.1674C19.9813 56.0835 20.3922 56.0449 20.7944 56.0939C21.1976 56.1435 21.5841 56.271 21.9397 56.4654Z" fill="white"/>
<path d="M16.4551 52.4769C16.5383 52.1243 16.5686 51.7531 16.5749 51.3912C16.5839 50.8938 16.5273 50.389 16.3642 49.9166C16.0562 49.025 15.3364 48.3494 14.4228 48.1097C13.941 47.9832 13.4343 47.9542 12.9385 47.9532C12.4208 47.9515 11.9047 47.9808 11.3883 48.0071C10.3299 48.0621 9.2665 48.1237 8.20974 48.0195C7.11302 47.9113 6.0123 47.6149 5.10503 46.968C5.08872 47.3512 5.16164 47.7418 5.26252 48.1097C5.38904 48.5711 5.5858 49.014 5.8395 49.4188C6.2983 50.1496 6.95055 50.7479 7.69868 51.1718C8.40951 51.5733 9.20225 51.815 10.0086 51.9266C10.5031 51.9951 11.0061 52.0198 11.5045 51.9895C12.0359 51.9582 12.5627 51.8753 13.0907 51.8054C13.689 51.7265 14.2993 51.6585 14.8999 51.7424C15.4852 51.825 16.0216 52.0747 16.4551 52.4769Z" fill="white"/>
<path d="M12.0772 47.4533C12.234 47.134 12.3432 46.7851 12.4245 46.4382C12.5377 45.9467 12.5876 45.425 12.495 44.9249C12.4051 44.4388 12.1871 43.991 11.8531 43.6268C11.5731 43.3198 11.2212 43.1057 10.8356 42.9546C9.91006 42.591 8.8846 42.5114 7.90741 42.3819C6.8906 42.2467 5.8668 42.0959 4.8936 41.76C4.08255 41.4803 3.31578 41.0681 2.70449 40.4585C2.68818 40.4585 2.65955 40.7358 2.65755 40.7528C2.63524 40.9569 2.62893 41.1613 2.63959 41.3658C2.66056 41.8336 2.75843 42.2914 2.91957 42.7308C3.25518 43.6451 3.91008 44.4262 4.70549 44.9779C5.5182 45.5422 6.48109 45.8981 7.45528 46.0573C8.41116 46.2131 9.395 46.1455 10.3439 46.3509C11.0471 46.5034 11.663 46.853 12.0772 47.4533Z" fill="white"/>
<path d="M8.83752 41.7226C9.07724 41.4176 9.26601 41.0637 9.41617 40.7074C9.60728 40.2526 9.72647 39.7575 9.69351 39.2624C9.66422 38.7996 9.49342 38.3385 9.20775 37.9713C8.95405 37.6463 8.60679 37.4073 8.24554 37.2172C7.34626 36.7467 6.33877 36.501 5.3799 36.186C4.4097 35.8674 3.43485 35.4955 2.59716 34.9012C2.161 34.5916 1.76878 34.2203 1.45781 33.7842C1.33229 34.0685 1.27037 34.3841 1.23608 34.6915C1.18547 35.1493 1.21145 35.6134 1.31399 36.0622C1.50843 36.9109 1.97821 37.6756 2.60515 38.2739C3.24706 38.8872 4.04711 39.3497 4.88247 39.644C5.37822 39.8181 5.89063 39.9327 6.3987 40.0632C6.87614 40.1864 7.36124 40.3252 7.79406 40.5673C8.26551 40.8316 8.62677 41.2241 8.83752 41.7226Z" fill="white"/>
<path d="M6.7448 35.5407C7.02347 35.3017 7.26419 35.008 7.46695 34.7034C7.7433 34.2859 7.95471 33.8071 7.98301 33.3017C8.01031 32.8189 7.87881 32.3178 7.59414 31.9236C7.31181 31.5328 6.91594 31.2411 6.51307 30.9857C5.6391 30.4294 4.68188 30.0142 3.79492 29.4798C2.92327 28.9548 2.07193 28.3132 1.53489 27.4299C1.46031 27.3077 1.39207 27.1809 1.33048 27.052C1.13471 27.3407 1.01151 27.6863 0.928602 28.0225C0.811073 28.4953 0.78144 28.9927 0.852357 29.4755C0.981872 30.3541 1.40605 31.1505 2.00368 31.8001C2.31165 32.1357 2.66192 32.4304 3.03781 32.6891C3.45865 32.9797 3.91246 33.2041 4.37725 33.4162C5.24923 33.8131 6.27203 34.2239 6.6436 35.1888C6.68788 35.3027 6.72149 35.4212 6.7448 35.5407Z" fill="white"/>
<path d="M5.79669 29.1141C6.13429 28.9204 6.44393 28.659 6.70529 28.372C7.00694 28.0347 7.25498 27.6422 7.34954 27.1947C7.44875 26.7256 7.3765 26.2278 7.14344 25.809C6.89739 25.3665 6.51552 25.0066 6.13729 24.678C5.39216 24.0314 4.58011 23.4641 3.86995 22.7749C3.1964 22.1206 2.59544 21.3465 2.35938 20.4216C2.07372 20.705 1.86428 21.0918 1.72345 21.4651C1.55032 21.9239 1.46776 22.4206 1.49672 22.9121C1.55566 23.9162 2.01811 24.8405 2.67434 25.5896C2.95168 25.9069 3.25965 26.1926 3.59459 26.4483C3.93186 26.7063 4.28712 26.9397 4.62539 27.198C4.93336 27.4328 5.23602 27.6938 5.45476 28.0157C5.67917 28.345 5.7877 28.7173 5.79669 29.1141Z" fill="white"/>
<path d="M6.04922 22.6192C6.80966 22.3682 7.60639 21.8118 7.87608 21.0294C8.03989 20.5553 8.00126 20.0576 7.79551 19.6041C7.59074 19.1553 7.2851 18.7591 6.97812 18.3765C5.95931 17.1107 4.68049 15.8152 4.5896 14.0962C4.32391 14.2713 4.0965 14.5214 3.91205 14.7784C3.6417 15.156 3.45259 15.5904 3.35969 16.0456C3.15993 17.0318 3.43029 18.0439 3.92538 18.8999C4.12847 19.2515 4.36885 19.5735 4.63754 19.8774C4.90755 20.1821 5.19754 20.4694 5.45557 20.785C5.66699 21.0407 5.86144 21.3181 5.97797 21.631C6.09483 21.948 6.1168 22.2879 6.04922 22.6192Z" fill="white"/>
<path d="M7.58221 16.2885C7.97208 16.2509 8.37294 16.127 8.72253 15.9503C9.13971 15.7385 9.49896 15.4125 9.68241 14.9754C9.88084 14.5039 9.82725 14.0122 9.66711 13.5377C9.50197 13.0473 9.25792 12.5872 9.02819 12.1251C8.45119 10.9648 7.80194 9.66527 8.06729 8.32983C7.68774 8.46667 7.33915 8.74435 7.07013 9.03934C6.75217 9.3886 6.51546 9.80944 6.38528 10.2646C6.13424 11.1402 6.26208 12.0748 6.58969 12.9128C6.82509 13.5124 7.20033 14.0398 7.477 14.6181C7.73137 15.1555 7.83325 15.7292 7.58221 16.2885Z" fill="white"/>
<path d="M10.4682 10.412C11.3156 10.5431 12.3427 10.3101 12.7809 9.50901C13.0129 9.07519 12.9906 8.56945 12.925 8.09567C12.8548 7.58993 12.7346 7.09385 12.641 6.59243C12.4499 5.56463 12.3284 4.45426 12.8072 3.4834C12.4343 3.51569 12.067 3.67517 11.7521 3.87194C11.3509 4.12232 11.0239 4.47957 10.7912 4.88909C10.3001 5.75641 10.2658 6.82948 10.4915 7.78103C10.6007 8.23883 10.7576 8.69164 10.8052 9.16143C10.8511 9.61823 10.7566 10.049 10.4682 10.412Z" fill="white"/>
<path d="M14.7559 5.39946C15.51 5.75504 16.5788 5.81098 17.1388 5.08682C17.4112 4.7349 17.4924 4.26445 17.5507 3.83562C17.6193 3.32389 17.6529 2.80782 17.7278 2.29709C17.8483 1.4857 18.078 0.646354 18.6634 0.0413949C18.2981 -0.041841 17.8889 0.00875919 17.5353 0.119297C17.0702 0.264127 16.6574 0.54946 16.3387 0.914367C15.7544 1.58258 15.5207 2.47089 15.4781 3.3392C15.4574 3.7404 15.4598 4.15292 15.3556 4.54313C15.2613 4.89505 15.0612 5.19669 14.7559 5.39946Z" fill="white"/>
<path d="M19.0413 4.9809C18.9827 4.61133 19.0659 4.20547 19.2207 3.8702C19.4162 3.44503 19.7495 3.10708 20.15 2.87236C20.5881 2.61633 21.1052 2.47216 21.6136 2.47616C22.1223 2.47915 22.6141 2.60001 23.1032 2.73418C23.6303 2.87835 24.1973 3.03317 24.7403 2.87768C24.5994 3.23993 24.3927 3.58752 24.1659 3.90082C23.8783 4.29669 23.5274 4.64695 23.0915 4.87502C22.6421 5.11075 22.1337 5.17267 21.6339 5.12672C21.1325 5.08077 20.6414 4.95259 20.14 4.90698C19.7724 4.87302 19.3992 4.88467 19.0413 4.9809Z" fill="white"/>
<path d="M36.4555 54.8843C35.7267 55.0175 35.0005 55.13 34.2607 55.185C33.2752 55.2572 32.2827 55.2472 31.2979 55.157C29.3042 54.9732 27.3505 54.4688 25.5023 53.7004C23.5939 52.9076 21.8046 51.8405 20.1729 50.5724C18.5801 49.3358 17.1331 47.9101 15.8573 46.349C14.5441 44.7442 13.4028 43.0016 12.4492 41.161C11.48 39.2932 10.697 37.3299 10.111 35.3086C9.52134 33.2763 9.11848 31.187 8.93137 29.0782C8.74093 26.943 8.75957 24.7915 9.01028 22.6617C9.247 20.6474 9.68883 18.651 10.3504 16.733C10.9936 14.8698 11.8383 13.0729 12.8974 11.4092C13.9462 9.76011 15.202 8.24655 16.6513 6.93475C17.3509 6.30149 18.096 5.71983 18.8801 5.19511C19.201 4.98003 19.5293 4.77793 19.8609 4.58083C19.8946 4.56119 19.8865 4.56319 19.8676 4.52956C19.8349 4.47329 19.8036 4.41769 19.7713 4.36209C19.751 4.32647 19.7314 4.29118 19.7118 4.25588C19.7111 4.25422 19.5649 4.33845 19.5569 4.34345C17.9568 5.25771 16.4975 6.40737 15.2057 7.72016C13.8326 9.1162 12.6557 10.704 11.6805 12.4014C10.7023 14.105 9.92487 15.9276 9.34855 17.805C8.74725 19.7611 8.35704 21.779 8.1666 23.8157C7.9665 25.9548 7.9938 28.114 8.2222 30.2498C8.44827 32.3537 8.87443 34.4426 9.49338 36.4672C10.108 38.4802 10.9061 40.4326 11.8879 42.2944C12.8608 44.1369 14.0194 45.8835 15.3445 47.4913C16.6181 49.0372 18.0537 50.4532 19.6285 51.6914C21.2533 52.9686 23.0289 54.0543 24.9223 54.8833C26.7662 55.691 28.7192 56.2534 30.7175 56.5128C32.5404 56.7485 34.3889 56.7275 36.2061 56.4488C36.6656 56.3779 37.2159 56.3323 37.436 55.8472C37.5609 55.5722 37.4746 55.2602 37.2449 55.0698C37.0318 54.8923 36.7225 54.832 36.4555 54.8843Z" fill="white"/>
</svg>
