<svg width="38" height="58" viewBox="0 0 38 58" fill="none" xmlns="http://www.w3.org/2000/svg">
<path d="M16.3188 56.5078C16.3148 56.5078 16.3434 56.1332 16.3454 56.1129C16.3684 55.8958 16.402 55.6804 16.4463 55.4667C16.5522 54.9649 16.712 54.4658 16.9667 54.0187C17.4541 53.166 18.2951 52.5611 19.2803 52.4525C19.79 52.3962 20.3078 52.4502 20.8109 52.5358C21.3219 52.6233 21.8253 52.7435 22.3287 52.8664C23.3565 53.1164 24.383 53.3814 25.4328 53.5159C26.8012 53.6914 28.2319 53.6345 29.4947 53.0265C29.4358 53.4264 29.2809 53.8179 29.1058 54.1802C28.8874 54.6316 28.5994 55.0518 28.2635 55.424C27.6941 56.057 26.9813 56.5521 26.1936 56.875C25.4028 57.2 24.5478 57.3525 23.6942 57.3588C23.1921 57.3618 22.691 57.3165 22.1972 57.2289C21.6935 57.14 21.2047 56.9892 20.7216 56.8231C20.0148 56.5807 19.3139 56.298 18.5748 56.1648C18.1899 56.0959 17.7967 56.073 17.4078 56.1286C17.0253 56.1835 16.6564 56.3187 16.3188 56.5078Z" fill="white"/>
<path d="M21.7567 52.4626C21.6705 52.1161 21.6362 51.7528 21.6265 51.3959C21.6119 50.8845 21.6602 50.3624 21.8286 49.8763C22.1153 49.048 22.7636 48.3844 23.6039 48.1157C24.0394 47.9769 24.4982 47.9309 24.954 47.912C25.462 47.891 25.9715 47.9106 26.4809 47.9319C27.535 47.9766 28.5914 48.0395 29.6451 47.9576C30.8514 47.8647 32.054 47.562 33.0505 46.8525C33.0661 47.1608 33.0202 47.4795 32.9553 47.7791C32.8524 48.2522 32.6759 48.7064 32.4402 49.1292C32.0187 49.8867 31.3921 50.5232 30.656 50.9777C29.9718 51.4016 29.2017 51.6736 28.4099 51.8144C27.9312 51.8996 27.4401 51.9419 26.953 51.9349C26.4199 51.9273 25.8925 51.856 25.3655 51.7898C24.7296 51.7109 24.0843 51.6226 23.4444 51.6932C22.8075 51.7635 22.2205 52.0188 21.7567 52.4626Z" fill="white"/>
<path d="M26.0822 47.3976C25.9181 47.071 25.8029 46.7114 25.7187 46.3568C25.6022 45.8617 25.5575 45.3427 25.6468 44.8399C25.7357 44.3362 25.9811 43.872 26.3323 43.5021C26.6623 43.1545 27.1027 42.9405 27.5522 42.79C28.0067 42.6382 28.4821 42.5493 28.9536 42.4724C29.465 42.3891 29.978 42.3232 30.4908 42.2493C31.5266 42.1031 32.576 41.9153 33.5485 41.5185C34.2271 41.2415 34.8813 40.8572 35.3917 40.3252C35.4889 40.7111 35.4869 41.1376 35.4443 41.5311C35.3904 42.0275 35.2532 42.511 35.0431 42.9631C34.6646 43.7845 34.0266 44.471 33.2742 44.9654C32.541 45.4482 31.6947 45.7662 30.8347 45.9343C29.8079 46.1347 28.7382 46.0458 27.722 46.2995C27.3901 46.3838 27.0708 46.5053 26.7834 46.6941C26.5031 46.8792 26.2727 47.1212 26.0822 47.3976Z" fill="white"/>
<path d="M29.2692 41.6393C29.2535 41.6393 29.2052 41.5554 29.1982 41.5444C29.133 41.4549 29.0737 41.364 29.0171 41.2714C28.9006 41.0846 28.7964 40.8902 28.7068 40.6885C28.5037 40.232 28.3699 39.7342 28.3878 39.2305C28.4065 38.752 28.5766 38.2733 28.867 37.8927C29.1173 37.5644 29.4623 37.3234 29.8232 37.1303C30.7151 36.6542 31.7156 36.4031 32.6682 36.0802C33.6334 35.7519 34.6026 35.3767 35.4363 34.778C35.8771 34.4617 36.269 34.0848 36.5829 33.6414C36.7467 33.9986 36.816 34.4241 36.835 34.8146C36.858 35.3197 36.7933 35.8245 36.6385 36.3066C36.3246 37.2751 35.6487 38.0922 34.827 38.6771C34.4448 38.9488 34.0342 39.1775 33.6057 39.366C33.1273 39.5764 32.6282 39.7159 32.1241 39.8474C31.1899 40.0898 30.1192 40.3242 29.5279 41.1609C29.423 41.3107 29.3398 41.4725 29.2692 41.6393Z" fill="white"/>
<path d="M31.3101 35.4419C31.0221 35.1988 30.7724 34.8969 30.565 34.5846C30.2916 34.175 30.0922 33.7082 30.0555 33.2132C30.0199 32.7224 30.1564 32.22 30.4421 31.8178C30.7208 31.4266 31.1206 31.1303 31.5218 30.8739C33.2039 29.7978 35.3107 29.1213 36.4187 27.341C36.5066 27.2009 36.5852 27.0554 36.6545 26.9045C36.8672 27.2092 36.9991 27.5854 37.0837 27.944C37.1872 28.3835 37.2125 28.8386 37.1579 29.2868C37.0517 30.1574 36.6425 30.9615 36.0642 31.6134C35.7615 31.9553 35.4159 32.2563 35.0467 32.5226C34.6305 32.82 34.1817 33.0557 33.7193 33.2708C32.8969 33.654 31.912 34.0375 31.4895 34.9055C31.406 35.0757 31.3473 35.2571 31.3101 35.4419Z" fill="white"/>
<path d="M32.2037 29.0074C31.8648 28.817 31.5545 28.5553 31.2905 28.2723C30.9612 27.9197 30.6995 27.4882 30.6182 27.0067C30.5363 26.5216 30.6302 26.0285 30.8899 25.6114C31.1493 25.1952 31.5062 24.8516 31.8731 24.5313C33.2665 23.3131 35.088 22.1994 35.5648 20.2803C35.7909 20.5027 35.9647 20.7867 36.1025 21.0714C36.3063 21.4929 36.4261 21.9563 36.4491 22.4251C36.4937 23.3251 36.192 24.1987 35.6926 24.9385C35.4386 25.3144 35.1366 25.6583 34.8057 25.9676C34.4501 26.2976 34.0482 26.5709 33.6587 26.8576C33.2891 27.1283 32.9172 27.4093 32.6349 27.7728C32.3572 28.1291 32.202 28.5549 32.2037 29.0074Z" fill="white"/>
<path d="M31.8943 22.5136C31.5264 22.3964 31.1709 22.2016 30.8622 21.9722C30.4843 21.6902 30.1747 21.319 30.0299 20.8662C29.8767 20.3868 29.9413 19.8963 30.1524 19.4462C30.3651 18.9911 30.6808 18.5822 30.9944 18.1933C31.9826 16.9721 33.2215 15.636 33.2711 13.9719C33.5817 14.171 33.8411 14.4687 34.0435 14.7736C34.2865 15.1366 34.454 15.5494 34.5346 15.9776C34.7017 16.8529 34.5066 17.7518 34.1094 18.5389C33.9369 18.8825 33.7285 19.2098 33.4898 19.5108C33.2334 19.8327 32.9438 20.1264 32.6734 20.436C32.4184 20.7267 32.173 21.0313 32.0145 21.3856C31.8564 21.7408 31.8121 22.1317 31.8943 22.5136Z" fill="white"/>
<path d="M30.3048 16.1941C29.4734 16.1202 28.5202 15.7047 28.1849 14.8893C27.9778 14.4005 28.0441 13.9001 28.2083 13.4097C28.3724 12.9183 28.6114 12.4531 28.8388 11.9887C29.4012 10.837 29.9985 9.55019 29.7285 8.23706C30.0694 8.35759 30.3804 8.58699 30.6387 8.83736C30.983 9.16997 31.2387 9.58516 31.3962 10.0363C31.7002 10.9073 31.5976 11.8605 31.294 12.7158C31.0769 13.3264 30.708 13.8582 30.429 14.4395C30.2981 14.7125 30.1843 15.0038 30.154 15.3071C30.121 15.6154 30.176 15.9134 30.3048 16.1941Z" fill="white"/>
<path d="M27.3531 10.3461C26.4887 10.4876 25.4662 10.2602 25.0148 9.44684C24.7827 9.02966 24.8087 8.51593 24.866 8.0588C24.9269 7.55239 25.0408 7.05331 25.13 6.5509C25.3098 5.53376 25.4233 4.39143 24.9212 3.44287C25.2898 3.46518 25.6727 3.62499 25.9827 3.81809C26.3845 4.06813 26.7221 4.41373 26.9578 4.82459C27.4712 5.71688 27.5055 6.79328 27.2821 7.77746C27.0897 8.62247 26.7178 9.59368 27.3531 10.3461Z" fill="white"/>
<path d="M22.9985 5.38558C22.246 5.75515 21.157 5.82074 20.598 5.0846C20.3319 4.73435 20.2447 4.27489 20.1808 3.84938C20.1039 3.33765 20.0653 2.82059 19.9807 2.31052C19.8468 1.5008 19.6014 0.680422 19.0145 0.078792C19.3797 -0.00677454 19.7869 0.0375094 20.1422 0.143719C20.6109 0.284221 21.0261 0.558901 21.3524 0.923141C21.9454 1.58637 22.1907 2.46301 22.2497 3.33432C22.2746 3.72054 22.277 4.11773 22.3782 4.49396C22.4767 4.86153 22.6772 5.17516 22.9985 5.38558Z" fill="white"/>
<path d="M12.8717 50.664C13.5126 51.1961 14.4065 51.5693 15.2479 51.4887C15.7307 51.4424 16.1795 51.2343 16.5234 50.8911C16.8617 50.5521 17.0498 50.1147 17.1127 49.6429C17.2509 48.6161 16.9489 47.5517 16.638 46.5835C16.32 45.5933 15.9287 44.6281 15.5938 43.6439C15.431 43.1661 15.2768 42.682 15.176 42.1869C15.1307 41.9692 15.0964 41.7494 15.0814 41.5277C15.0771 41.4778 15.0754 41.4275 15.0731 41.3772C15.0731 41.3772 14.9982 41.3809 14.9952 41.3809C14.883 41.3885 14.7728 41.4045 14.6629 41.4285C14.2634 41.5154 13.8815 41.6945 13.6058 42.0038C13.3544 42.2868 13.2216 42.6501 13.155 43.0183C13.0255 43.7474 13.1067 44.5106 13.205 45.2377C13.2735 45.7461 13.3668 46.2482 13.469 46.7503C13.5765 47.2713 13.6897 47.7924 13.744 48.3218C13.7909 48.7756 13.8012 49.253 13.6651 49.6922C13.5349 50.1133 13.2656 50.4613 12.8717 50.664Z" fill="white"/>
<path d="M17.1965 47.799C17.2238 47.799 17.2713 47.8323 17.2967 47.8433C17.3959 47.8859 17.4984 47.9235 17.6003 47.9581C17.8031 48.0247 18.0115 48.0767 18.2226 48.111C18.695 48.1885 19.1934 48.1802 19.6482 48.0157C20.0371 47.8756 20.3731 47.6229 20.6118 47.2846C20.8998 46.8767 21.0007 46.3996 20.9654 45.9055C20.9287 45.3825 20.7636 44.8711 20.5655 44.3886C20.3621 43.8956 20.119 43.4208 19.8623 42.9536C19.3576 42.0331 18.7936 41.1444 18.3205 40.2065C18.0531 39.6758 17.8071 39.1188 17.7005 38.5315C17.29 38.6217 16.8771 38.8551 16.5941 39.1644C16.3381 39.4431 16.186 39.7917 16.1284 40.1639C16.0148 40.906 16.2096 41.6858 16.421 42.3923C16.5588 42.8461 16.718 43.2936 16.8961 43.7324C17.0866 44.2002 17.293 44.6603 17.4631 45.1354C17.7734 46.0094 17.9989 47.1138 17.1965 47.799Z" fill="white"/>
<path d="M20.8597 43.9479C21.6801 44.1443 22.7022 44.0751 23.3844 43.5387C23.7407 43.259 23.998 42.8525 24.0859 42.4073C24.1788 41.9402 24.0686 41.4585 23.8905 41.025C23.4936 40.0574 22.8001 39.2237 22.1449 38.4227C21.4916 37.6233 20.7928 36.8392 20.2687 35.9446C20.1106 35.6752 19.9691 35.3919 19.8729 35.0942C19.8729 35.1002 19.7736 35.1409 19.7666 35.1445C19.6671 35.1961 19.5719 35.2561 19.481 35.3213C19.3192 35.4365 19.17 35.571 19.0445 35.7258C18.7405 36.0961 18.6044 36.5612 18.6223 37.0373C18.6396 37.5064 18.7741 37.9662 18.9482 38.398C19.1347 38.8608 19.3608 39.3066 19.6075 39.7395C19.9907 40.4123 20.4632 41.0326 20.8148 41.7232C20.9925 42.0714 21.1437 42.4456 21.18 42.8382C21.2173 43.2414 21.1058 43.6276 20.8597 43.9479Z" fill="white"/>
<path d="M23.7173 39.368C24.561 39.4056 25.5558 39.1313 26.0875 38.4364C26.3426 38.1025 26.483 37.673 26.4614 37.2522C26.4358 36.7724 26.2057 36.3262 25.9367 35.939C25.3401 35.08 24.514 34.3892 23.7386 33.6976C23.3414 33.3447 22.9449 32.9905 22.571 32.6129C22.2154 32.2537 21.8758 31.8721 21.6138 31.4383C21.5678 31.3604 21.5229 31.2805 21.4836 31.1982C20.8277 31.6138 20.4598 32.3932 20.5663 33.1586C20.6749 33.9447 21.1413 34.6605 21.6051 35.2821C21.8522 35.6137 22.1165 35.928 22.3942 36.2337C22.6792 36.546 22.9685 36.8536 23.2289 37.1866C23.713 37.8035 24.1272 38.6012 23.7173 39.368Z" fill="white"/>
<path d="M25.6929 34.2795C26.5269 34.1673 27.4575 33.7102 27.8048 32.9018C27.9952 32.46 27.9833 31.9513 27.7818 31.5154C27.5744 31.0699 27.2128 30.7054 26.8429 30.3894C26.1321 29.7811 25.32 29.3023 24.5369 28.7919C24.1524 28.5409 23.7665 28.2865 23.4049 28.0009C23.047 27.7222 22.6984 27.4116 22.4407 27.0347C22.1524 27.2894 21.9396 27.6559 21.8414 28.0238C21.7182 28.4906 21.8171 28.9857 22.0342 29.4092C22.186 29.7185 22.3911 29.9995 22.6129 30.2619C22.9218 30.6255 23.2664 30.9634 23.629 31.2727C24.1361 31.7055 24.6961 32.0851 25.1549 32.5722C25.3696 32.8003 25.5624 33.0536 25.6729 33.3499C25.7858 33.6543 25.7908 33.9712 25.6929 34.2795Z" fill="white"/>
<path d="M26.73 28.891C27.4925 28.6533 28.2996 28.0663 28.473 27.2453C28.5732 26.7712 28.4477 26.2937 28.1467 25.9172C27.8407 25.5346 27.4142 25.255 26.9901 25.0196C26.2543 24.6107 25.4652 24.3071 24.6954 23.9688C23.9826 23.6562 23.2152 23.3166 22.6665 22.7476C22.4008 23.0805 22.2509 23.519 22.2559 23.9425C22.2609 24.4356 22.5193 24.8881 22.8403 25.247C23.5051 25.9888 24.3874 26.4609 25.2421 26.9436C25.9533 27.3452 26.8955 27.9345 26.73 28.891Z" fill="white"/>
<path d="M26.759 23.4087C27.4745 23.0375 28.1714 22.2727 28.0781 21.4127C27.9659 20.3719 26.8459 19.9637 25.9776 19.7127C25.3087 19.5196 24.6255 19.3854 23.9503 19.2186C23.32 19.0625 22.6295 18.8867 22.1021 18.4915C21.9127 18.8361 21.8441 19.2686 21.9157 19.6531C22.0039 20.1279 22.3401 20.5128 22.7177 20.7918C23.0833 21.0688 23.5015 21.2789 23.9206 21.4577C24.3968 21.6604 24.8925 21.7999 25.3743 21.984C26.0245 22.2324 26.7404 22.6233 26.759 23.4087Z" fill="white"/>
<path d="M25.7087 18.0468C26.3809 17.5091 26.9033 16.5425 26.4312 15.7158C26.1971 15.306 25.7417 15.1072 25.3032 14.995C24.8124 14.8688 24.2947 14.8369 23.7906 14.8182C23.2522 14.7982 22.7122 14.7972 22.1745 14.7613C21.6754 14.7276 21.159 14.6757 20.6989 14.4673C20.5667 14.8905 20.605 15.3912 20.8427 15.7691C21.0485 16.0944 21.3887 16.3131 21.7333 16.4653C22.1266 16.6384 22.5467 16.744 22.9662 16.8272C23.4703 16.9264 23.9864 16.9487 24.4878 17.0613C25.0341 17.1824 25.5871 17.4468 25.7087 18.0468Z" fill="white"/>
<path d="M23.5341 13.0751C23.7921 12.7558 23.9842 12.3526 24.0451 11.946C24.118 11.4623 23.9436 10.9312 23.5134 10.6642C23.1096 10.4132 22.5918 10.4115 22.1334 10.4511C21.606 10.4974 21.0862 10.6116 20.5692 10.7171C20.2083 10.7911 19.847 10.865 19.4824 10.9126C19.1412 10.9579 18.7806 10.9852 18.4413 10.9126C18.4087 10.9126 18.4783 11.385 18.488 11.424C18.5419 11.6507 18.6501 11.8691 18.8142 12.0349C19.1299 12.3549 19.5867 12.4701 20.0201 12.518C20.5152 12.5723 21.0133 12.5417 21.5084 12.4937C21.9949 12.4465 22.5499 12.3622 23.0146 12.56C23.2494 12.6602 23.4345 12.8397 23.5341 13.0751Z" fill="white"/>
<path d="M20.2297 8.84575C20.4009 8.47818 20.4881 8.02571 20.4159 7.62451C20.3403 7.204 20.0553 6.82379 19.6291 6.71259C19.159 6.58973 18.6479 6.76419 18.2144 6.93998C17.7214 7.14008 17.2516 7.39345 16.7718 7.62451C16.3293 7.83726 15.8475 8.06966 15.3481 8.09063C15.4207 8.48917 15.6678 8.88737 16.0427 9.0625C16.3749 9.22797 16.7808 9.205 17.1364 9.14507C17.6148 9.06517 18.064 8.89935 18.5174 8.73355C18.9426 8.57773 19.4796 8.37363 19.9201 8.58705C20.0423 8.64631 20.1475 8.73721 20.2297 8.84575Z" fill="white"/>
<path d="M19.0288 5.03141C18.7158 5.2405 18.3179 5.35836 17.9453 5.39632C17.4396 5.44793 16.9538 5.32873 16.5057 5.099C16.0952 4.88825 15.7489 4.58028 15.4542 4.22969C15.1792 3.90207 14.9472 3.54149 14.6808 3.20788C14.3519 2.79636 13.9554 2.42247 13.426 2.30394C14.0802 1.75492 15.0168 1.47757 15.8614 1.60309C16.3489 1.67567 16.8133 1.88143 17.1889 2.20105C17.5045 2.46974 17.7469 2.81035 17.9513 3.16926C18.3062 3.79453 18.5616 4.47473 19.0288 5.03141Z" fill="white"/>
<path d="M1.24906 56.5193C1.57667 56.5945 1.91894 56.6358 2.25388 56.6774C2.6361 56.7261 3.02131 56.7647 3.40553 56.7906C4.39105 56.8596 5.38456 56.8536 6.36774 56.7687C8.35708 56.5979 10.3138 56.1317 12.1739 55.4076C14.125 54.6481 15.9645 53.6164 17.6512 52.3778C19.2473 51.2065 20.7086 49.8524 22.0161 48.3648C23.3875 46.805 24.5871 45.099 25.6155 43.2938C26.6536 41.4709 27.5034 39.5408 28.1702 37.5518C28.8438 35.5452 29.3285 33.4719 29.6149 31.3737C29.9055 29.2525 29.9918 27.102 29.8602 24.9642C29.7327 22.9006 29.3981 20.8484 28.8518 18.8544C28.3294 16.9446 27.6056 15.0874 26.679 13.3372C25.7804 11.6408 24.6836 10.0407 23.3975 8.61367C22.1236 7.19966 20.664 5.95279 19.0496 4.94164C18.7892 4.7785 18.5245 4.62335 18.2568 4.47119C18.2062 4.55909 18.1559 4.64698 18.106 4.73588C18.091 4.76151 18.0691 4.77483 18.097 4.79181C18.1749 4.83776 18.2532 4.8847 18.3311 4.93098C18.663 5.12908 18.988 5.34084 19.3063 5.56125C20.1103 6.11493 20.8797 6.72821 21.5886 7.40076C23.0043 8.74585 24.2315 10.2637 25.2549 11.9275C26.2871 13.6072 27.1038 15.4151 27.7218 17.2862C28.3577 19.2119 28.7742 21.2149 28.9839 23.2322C29.2057 25.3657 29.2064 27.5226 28.9839 29.6567C28.7659 31.7579 28.3457 33.8342 27.7337 35.8565C27.1261 37.8668 26.3204 39.8168 25.3322 41.6693C24.3547 43.5009 23.189 45.2325 21.8526 46.821C20.5591 48.3582 19.0972 49.7599 17.4914 50.9688C15.8366 52.2147 14.0251 53.2531 12.0974 54.0136C10.2452 54.7447 8.2908 55.2045 6.3028 55.3483C5.32694 55.4193 4.34378 55.4069 3.36958 55.3157C3.00401 55.2811 2.63643 55.2428 2.27486 55.1802C2.07675 55.1456 1.87565 55.1156 1.67855 55.0753C1.54004 55.0474 1.4152 55.0217 1.27237 55.0317C0.876829 55.0603 0.466976 55.341 0.49461 55.7782C0.519248 56.171 0.890477 56.4507 1.24906 56.5193Z" fill="white"/>
</svg>
